<svg width="55" height="55" viewBox="0 0 55 55" fill="none" xmlns="http://www.w3.org/2000/svg">
<path d="M0 48.125C0 49.9484 0.724328 51.697 2.01364 52.9864C3.30295 54.2757 5.05164 55 6.875 55H48.125C49.9484 55 51.697 54.2757 52.9864 52.9864C54.2757 51.697 55 49.9484 55 48.125V6.875C55 5.05164 54.2757 3.30295 52.9864 2.01364C51.697 0.724328 49.9484 0 48.125 0L6.875 0C5.05164 0 3.30295 0.724328 2.01364 2.01364C0.724328 3.30295 0 5.05164 0 6.875L0 48.125ZM15.4688 25.7812H35.3822L28.0019 18.4044C27.6791 18.0816 27.4978 17.6439 27.4978 17.1875C27.4978 16.7311 27.6791 16.2934 28.0019 15.9706C28.3246 15.6479 28.7623 15.4666 29.2188 15.4666C29.6752 15.4666 30.1129 15.6479 30.4356 15.9706L40.7481 26.2831C40.9082 26.4428 41.0352 26.6324 41.1218 26.8413C41.2085 27.0501 41.2531 27.2739 41.2531 27.5C41.2531 27.7261 41.2085 27.9499 41.1218 28.1587C41.0352 28.3675 40.9082 28.5572 40.7481 28.7169L30.4356 39.0294C30.1129 39.3521 29.6752 39.5334 29.2188 39.5334C28.7623 39.5334 28.3246 39.3521 28.0019 39.0294C27.6791 38.7066 27.4978 38.2689 27.4978 37.8125C27.4978 37.3561 27.6791 36.9184 28.0019 36.5956L35.3822 29.2188H15.4688C15.0129 29.2188 14.5757 29.0377 14.2534 28.7153C13.9311 28.393 13.75 27.9558 13.75 27.5C13.75 27.0442 13.9311 26.607 14.2534 26.2847C14.5757 25.9623 15.0129 25.7812 15.4688 25.7812Z" fill="#8C34D9"/>
</svg>
