<svg width="43" height="43" viewBox="0 0 43 43" fill="none" xmlns="http://www.w3.org/2000/svg">
<path d="M30.875 21.5H12.125M35.5625 35.5625C37.4092 33.7158 38.8741 31.5234 39.8735 29.1106C40.873 26.6977 41.3874 24.1116 41.3874 21.5C41.3874 18.8884 40.873 16.3023 39.8735 13.8894C38.8741 11.4766 37.4092 9.28421 35.5625 7.4375C33.7158 5.59079 31.5234 4.12589 29.1106 3.12646C26.6977 2.12702 24.1116 1.61263 21.5 1.61263C18.8884 1.61263 16.3023 2.12702 13.8894 3.12646C11.4766 4.12589 9.28421 5.59079 7.4375 7.4375C5.59079 9.28421 4.12589 11.4766 3.12646 13.8894C2.12702 16.3023 1.61262 18.8884 1.61262 21.5C1.61262 24.1116 2.12702 26.6977 3.12646 29.1106C4.12589 31.5234 5.59079 33.7158 7.4375 35.5625C9.28421 37.4092 11.4766 38.8741 13.8894 39.8735C16.3023 40.873 18.8884 41.3874 21.5 41.3874C24.1116 41.3874 26.6977 40.873 29.1106 39.8735C31.5234 38.8741 33.7158 37.4092 35.5625 35.5625Z" stroke="#8C34D9" stroke-width="2" stroke-linecap="round" stroke-linejoin="round"/>
</svg>
