<svg width="22" height="28" viewBox="0 0 22 28" fill="none" xmlns="http://www.w3.org/2000/svg">
<path d="M18.6668 15.111L1.6285 26.4693C1.503 26.5529 1.35721 26.6008 1.20665 26.608C1.05608 26.6152 0.906385 26.5814 0.773495 26.5102C0.640606 26.4391 0.529503 26.3332 0.45202 26.2039C0.374536 26.0746 0.333574 25.9268 0.333496 25.776V2.22268C0.333574 2.07195 0.374536 1.92405 0.45202 1.79475C0.529503 1.66546 0.640606 1.5596 0.773495 1.48845C0.906385 1.4173 1.05608 1.38353 1.20665 1.39073C1.35721 1.39793 1.503 1.44584 1.6285 1.52935L18.6668 12.8877V2.33268C18.6668 1.89065 18.8424 1.46673 19.155 1.15417C19.4675 0.841611 19.8915 0.666016 20.3335 0.666016C20.7755 0.666016 21.1994 0.841611 21.512 1.15417C21.8246 1.46673 22.0002 1.89065 22.0002 2.33268V25.666C22.0002 26.108 21.8246 26.532 21.512 26.8445C21.1994 27.1571 20.7755 27.3327 20.3335 27.3327C19.8915 27.3327 19.4675 27.1571 19.155 26.8445C18.8424 26.532 18.6668 26.108 18.6668 25.666V15.111ZM3.66683 6.89435V21.1043L14.3235 13.9993L3.66683 6.89435Z" fill="#8C34D9"/>
</svg>
