<svg width="33" height="33" viewBox="0 0 34 34" fill="none" xmlns="http://www.w3.org/2000/svg">
<path d="M17.0002 33.6673C7.79516 33.6673 0.333496 26.2057 0.333496 17.0007C0.333496 7.79565 7.79516 0.333984 17.0002 0.333984C26.2052 0.333984 33.6668 7.79565 33.6668 17.0007C33.6668 26.2057 26.2052 33.6673 17.0002 33.6673ZM17.0002 30.334C20.5364 30.334 23.9278 28.9292 26.4283 26.4287C28.9287 23.9283 30.3335 20.5369 30.3335 17.0007C30.3335 13.4644 28.9287 10.073 26.4283 7.57256C23.9278 5.07208 20.5364 3.66732 17.0002 3.66732C13.4639 3.66732 10.0726 5.07208 7.57207 7.57256C5.07159 10.073 3.66683 13.4644 3.66683 17.0007C3.66683 20.5369 5.07159 23.9283 7.57207 26.4287C10.0726 28.9292 13.4639 30.334 17.0002 30.334ZM12.0002 12.0007H15.3335V22.0007H12.0002V12.0007ZM18.6668 12.0007H22.0002V22.0007H18.6668V12.0007Z" fill="#8C34D9"/>
</svg>
