<svg width="22" height="28" viewBox="0 0 22 28" fill="none" xmlns="http://www.w3.org/2000/svg">
<path d="M1.66667 0.666016C2.10869 0.666016 2.53262 0.841611 2.84518 1.15417C3.15774 1.46673 3.33333 1.89065 3.33333 2.33268V12.8877L20.3717 1.52935C20.4972 1.44584 20.6429 1.39793 20.7935 1.39073C20.9441 1.38353 21.0938 1.4173 21.2267 1.48845C21.3596 1.5596 21.4707 1.66546 21.5481 1.79475C21.6256 1.92405 21.6666 2.07195 21.6667 2.22268V25.776C21.6666 25.9268 21.6256 26.0746 21.5481 26.2039C21.4707 26.3332 21.3596 26.4391 21.2267 26.5102C21.0938 26.5814 20.9441 26.6152 20.7935 26.608C20.6429 26.6008 20.4972 26.5529 20.3717 26.4693L3.33333 15.111V25.666C3.33333 26.108 3.15774 26.532 2.84518 26.8445C2.53262 27.1571 2.10869 27.3327 1.66667 27.3327C1.22464 27.3327 0.800716 27.1571 0.488156 26.8445C0.175595 26.532 0 26.108 0 25.666V2.33268C0 1.89065 0.175595 1.46673 0.488156 1.15417C0.800716 0.841611 1.22464 0.666016 1.66667 0.666016ZM18.3333 6.89435L7.67667 13.9993L18.3333 21.1043V6.89435Z" fill="#8C34D9"/>
</svg>
